G04 (created by PCBNEW (2013-may-18)-stable) date Wed 11 Feb 2015 08:06:24 PM EST*
%MOIN*%
G04 Gerber Fmt 3.4, Leading zero omitted, Abs format*
%FSLAX34Y34*%
G01*
G70*
G90*
G04 APERTURE LIST*
%ADD10C,0.00590551*%
%ADD11C,0.005*%
%ADD12C,0.011811*%
%ADD13R,0.055X0.055*%
%ADD14C,0.055*%
%ADD15R,0.038X0.05*%
G04 APERTURE END LIST*
G54D10*
G54D11*
X77407Y-63936D02*
X75907Y-63936D01*
X75907Y-63936D02*
X75907Y-63236D01*
X75907Y-63236D02*
X77407Y-63236D01*
X77407Y-63936D02*
X77407Y-63236D01*
X75753Y-63243D02*
X74253Y-63243D01*
X74253Y-63243D02*
X74253Y-62543D01*
X74253Y-62543D02*
X75753Y-62543D01*
X75753Y-63243D02*
X75753Y-62543D01*
%LPC*%
G54D12*
X76401Y-60921D02*
X76316Y-60949D01*
X76288Y-60978D01*
X76260Y-61034D01*
X76260Y-61118D01*
X76288Y-61174D01*
X76316Y-61203D01*
X76372Y-61231D01*
X76597Y-61231D01*
X76597Y-60640D01*
X76401Y-60640D01*
X76344Y-60668D01*
X76316Y-60696D01*
X76288Y-60753D01*
X76288Y-60809D01*
X76316Y-60865D01*
X76344Y-60893D01*
X76401Y-60921D01*
X76597Y-60921D01*
X75669Y-61231D02*
X75866Y-60949D01*
X76007Y-61231D02*
X76007Y-60640D01*
X75782Y-60640D01*
X75726Y-60668D01*
X75697Y-60696D01*
X75669Y-60753D01*
X75669Y-60837D01*
X75697Y-60893D01*
X75726Y-60921D01*
X75782Y-60949D01*
X76007Y-60949D01*
X75416Y-61231D02*
X75416Y-60640D01*
X75079Y-61231D01*
X75079Y-60640D01*
G54D13*
X77759Y-64311D03*
G54D14*
X77759Y-63311D03*
X77759Y-62311D03*
X77759Y-61311D03*
X77759Y-60311D03*
G54D13*
X76759Y-64311D03*
G54D14*
X75759Y-64311D03*
G54D13*
X73759Y-64311D03*
G54D14*
X74759Y-64311D03*
G54D15*
X77157Y-63586D03*
X76657Y-63586D03*
X76157Y-63586D03*
X75503Y-62893D03*
X75003Y-62893D03*
X74503Y-62893D03*
M02*
