G04 (created by PCBNEW (2013-may-18)-stable) date Wed 11 Feb 2015 08:06:24 PM EST*
%MOIN*%
G04 Gerber Fmt 3.4, Leading zero omitted, Abs format*
%FSLAX34Y34*%
G01*
G70*
G90*
G04 APERTURE LIST*
%ADD10C,0.00590551*%
%ADD11R,0.035X0.055*%
%ADD12R,0.045X0.025*%
%ADD13R,0.0236X0.0157*%
%ADD14R,0.0157X0.0236*%
%ADD15R,0.055X0.055*%
%ADD16C,0.055*%
%ADD17R,0.0275591X0.0551181*%
%ADD18R,0.011811X0.0275591*%
%ADD19R,0.0275591X0.011811*%
%ADD20R,0.0944882X0.0944882*%
%ADD21R,0.023622X0.0590551*%
%ADD22R,0.011811X0.019685*%
%ADD23R,0.025X0.045*%
G04 APERTURE END LIST*
G54D10*
G54D11*
X74414Y-63220D03*
X73664Y-63220D03*
G54D12*
X76614Y-60499D03*
X76614Y-61099D03*
G54D13*
X76125Y-60928D03*
X76125Y-60574D03*
G54D14*
X74610Y-60259D03*
X74964Y-60259D03*
X73815Y-60704D03*
X74169Y-60704D03*
X74169Y-60322D03*
X73815Y-60322D03*
G54D13*
X74842Y-63315D03*
X74842Y-63669D03*
G54D15*
X77759Y-64311D03*
G54D16*
X77759Y-63311D03*
X77759Y-62311D03*
X77759Y-61311D03*
X77759Y-60311D03*
G54D15*
X76759Y-64311D03*
G54D16*
X75759Y-64311D03*
G54D15*
X73759Y-64311D03*
G54D16*
X74759Y-64311D03*
G54D17*
X75464Y-60791D03*
X74874Y-60791D03*
G54D18*
X75397Y-61405D03*
X75594Y-61405D03*
X75988Y-61405D03*
X75791Y-61405D03*
X76185Y-61405D03*
X76185Y-62980D03*
X75791Y-62980D03*
X75988Y-62980D03*
X75594Y-62980D03*
X75397Y-62980D03*
G54D19*
X76578Y-61799D03*
X76578Y-61996D03*
X76578Y-62389D03*
X76578Y-62192D03*
X76578Y-62586D03*
X75003Y-62586D03*
X75003Y-62192D03*
X75003Y-62389D03*
X75003Y-61996D03*
X75003Y-61799D03*
G54D20*
X75791Y-62192D03*
G54D21*
X73610Y-61425D03*
X74003Y-61425D03*
X74397Y-61425D03*
X74397Y-62409D03*
X74003Y-62409D03*
X73610Y-62409D03*
G54D22*
X76866Y-63576D03*
X76669Y-63576D03*
X76472Y-63576D03*
X76472Y-63281D03*
X76669Y-63281D03*
X76866Y-63281D03*
G54D23*
X76063Y-63555D03*
X75463Y-63555D03*
M02*
