G04 (created by PCBNEW (2013-may-18)-stable) date Wed 11 Feb 2015 08:06:24 PM EST*
%MOIN*%
G04 Gerber Fmt 3.4, Leading zero omitted, Abs format*
%FSLAX34Y34*%
G01*
G70*
G90*
G04 APERTURE LIST*
%ADD10C,0.00590551*%
%ADD11C,0.0039*%
%ADD12C,0.005*%
%ADD13C,0.0028*%
%ADD14C,0.012*%
%ADD15R,0.035X0.055*%
%ADD16R,0.045X0.025*%
%ADD17R,0.0236X0.0157*%
%ADD18R,0.0157X0.0236*%
%ADD19R,0.055X0.055*%
%ADD20C,0.055*%
%ADD21R,0.0275591X0.0551181*%
%ADD22R,0.011811X0.0275591*%
%ADD23R,0.0275591X0.011811*%
%ADD24R,0.0944882X0.0944882*%
%ADD25R,0.023622X0.0590551*%
%ADD26R,0.011811X0.019685*%
%ADD27R,0.025X0.045*%
G04 APERTURE END LIST*
G54D10*
G54D11*
X74739Y-62920D02*
G75*
G03X74739Y-62920I-50J0D01*
G74*
G01*
X74239Y-62920D02*
X74639Y-62920D01*
X74639Y-62920D02*
X74639Y-63520D01*
X74639Y-63520D02*
X74239Y-63520D01*
X73839Y-63520D02*
X73439Y-63520D01*
X73439Y-63520D02*
X73439Y-62920D01*
X73439Y-62920D02*
X73839Y-62920D01*
G54D12*
X76864Y-60349D02*
X76864Y-61249D01*
X76864Y-61249D02*
X76364Y-61249D01*
X76364Y-61249D02*
X76364Y-60349D01*
X76364Y-60349D02*
X76864Y-60349D01*
G54D13*
X75975Y-60851D02*
X75975Y-61051D01*
X75975Y-61051D02*
X76275Y-61051D01*
X76275Y-61051D02*
X76275Y-60851D01*
X75975Y-60651D02*
X75975Y-60451D01*
X75975Y-60451D02*
X76275Y-60451D01*
X76275Y-60451D02*
X76275Y-60651D01*
X74687Y-60109D02*
X74487Y-60109D01*
X74487Y-60109D02*
X74487Y-60409D01*
X74487Y-60409D02*
X74687Y-60409D01*
X74887Y-60109D02*
X75087Y-60109D01*
X75087Y-60109D02*
X75087Y-60409D01*
X75087Y-60409D02*
X74887Y-60409D01*
X73892Y-60554D02*
X73692Y-60554D01*
X73692Y-60554D02*
X73692Y-60854D01*
X73692Y-60854D02*
X73892Y-60854D01*
X74092Y-60554D02*
X74292Y-60554D01*
X74292Y-60554D02*
X74292Y-60854D01*
X74292Y-60854D02*
X74092Y-60854D01*
X74092Y-60472D02*
X74292Y-60472D01*
X74292Y-60472D02*
X74292Y-60172D01*
X74292Y-60172D02*
X74092Y-60172D01*
X73892Y-60472D02*
X73692Y-60472D01*
X73692Y-60472D02*
X73692Y-60172D01*
X73692Y-60172D02*
X73892Y-60172D01*
X74992Y-63392D02*
X74992Y-63192D01*
X74992Y-63192D02*
X74692Y-63192D01*
X74692Y-63192D02*
X74692Y-63392D01*
X74992Y-63592D02*
X74992Y-63792D01*
X74992Y-63792D02*
X74692Y-63792D01*
X74692Y-63792D02*
X74692Y-63592D01*
G54D14*
X78259Y-64811D02*
X77259Y-64811D01*
X77259Y-64811D02*
X77259Y-59811D01*
X77259Y-59811D02*
X78259Y-59811D01*
X78259Y-59811D02*
X78259Y-64811D01*
X78259Y-63811D02*
X77259Y-63811D01*
X77259Y-63811D02*
X77259Y-64811D01*
X77259Y-64811D02*
X75259Y-64811D01*
X75259Y-64811D02*
X75259Y-63811D01*
X75259Y-63811D02*
X77259Y-63811D01*
X73259Y-64811D02*
X73259Y-63811D01*
X73259Y-63811D02*
X75259Y-63811D01*
X75259Y-63811D02*
X75259Y-64811D01*
X75259Y-64811D02*
X73259Y-64811D01*
G54D10*
X75562Y-61106D02*
X74775Y-61106D01*
X74775Y-61106D02*
X74775Y-60476D01*
X74775Y-60476D02*
X75562Y-60476D01*
X75562Y-60476D02*
X75562Y-61106D01*
X75003Y-61405D02*
X76578Y-61405D01*
X76578Y-61405D02*
X76578Y-62980D01*
X76578Y-62980D02*
X75003Y-62980D01*
X75003Y-62980D02*
X75003Y-61405D01*
X74807Y-61011D02*
G75*
G03X74807Y-61011I-196J0D01*
G74*
G01*
X73257Y-62409D02*
G75*
G03X73257Y-62409I-139J0D01*
G74*
G01*
X73413Y-62212D02*
X74594Y-62212D01*
X74594Y-62212D02*
X74594Y-61622D01*
X74594Y-61622D02*
X73413Y-61622D01*
X73413Y-61622D02*
X73413Y-62212D01*
X77256Y-63035D02*
G75*
G03X77256Y-63035I-55J0D01*
G74*
G01*
X76954Y-63232D02*
X76954Y-63625D01*
X76954Y-63625D02*
X76383Y-63625D01*
X76383Y-63625D02*
X76383Y-63232D01*
X76383Y-63232D02*
X76954Y-63232D01*
G54D12*
X76213Y-63805D02*
X75313Y-63805D01*
X75313Y-63805D02*
X75313Y-63305D01*
X75313Y-63305D02*
X76213Y-63305D01*
X76213Y-63305D02*
X76213Y-63805D01*
%LPC*%
G54D15*
X74414Y-63220D03*
X73664Y-63220D03*
G54D16*
X76614Y-60499D03*
X76614Y-61099D03*
G54D17*
X76125Y-60928D03*
X76125Y-60574D03*
G54D18*
X74610Y-60259D03*
X74964Y-60259D03*
X73815Y-60704D03*
X74169Y-60704D03*
X74169Y-60322D03*
X73815Y-60322D03*
G54D17*
X74842Y-63315D03*
X74842Y-63669D03*
G54D19*
X77759Y-64311D03*
G54D20*
X77759Y-63311D03*
X77759Y-62311D03*
X77759Y-61311D03*
X77759Y-60311D03*
G54D19*
X76759Y-64311D03*
G54D20*
X75759Y-64311D03*
G54D19*
X73759Y-64311D03*
G54D20*
X74759Y-64311D03*
G54D21*
X75464Y-60791D03*
X74874Y-60791D03*
G54D22*
X75397Y-61405D03*
X75594Y-61405D03*
X75988Y-61405D03*
X75791Y-61405D03*
X76185Y-61405D03*
X76185Y-62980D03*
X75791Y-62980D03*
X75988Y-62980D03*
X75594Y-62980D03*
X75397Y-62980D03*
G54D23*
X76578Y-61799D03*
X76578Y-61996D03*
X76578Y-62389D03*
X76578Y-62192D03*
X76578Y-62586D03*
X75003Y-62586D03*
X75003Y-62192D03*
X75003Y-62389D03*
X75003Y-61996D03*
X75003Y-61799D03*
G54D24*
X75791Y-62192D03*
G54D25*
X73610Y-61425D03*
X74003Y-61425D03*
X74397Y-61425D03*
X74397Y-62409D03*
X74003Y-62409D03*
X73610Y-62409D03*
G54D26*
X76866Y-63576D03*
X76669Y-63576D03*
X76472Y-63576D03*
X76472Y-63281D03*
X76669Y-63281D03*
X76866Y-63281D03*
G54D27*
X76063Y-63555D03*
X75463Y-63555D03*
M02*
