M48
;DRILL file {Pcbnew (2013-may-18)-stable} date Wed 11 Feb 2015 08:05:10 PM EST
;FORMAT={2:4/ absolute / inch / keep zeros}
FMAT,2
INCH,TZ
T1C0.013
T2C0.032
%
G90
G05
M72
T1
X073547Y-060929
X073610Y-060378
X074039Y-061016
X074039Y-062854
X074472Y-060575
X074520Y-063402
X074602Y-061913
X074713Y-062402
X074858Y-061500
X075008Y-062866
X075087Y-063945
X075134Y-063496
X075409Y-060220
X075839Y-062358
X076665Y-063835
X076673Y-063039
X076976Y-061524
X077024Y-062110
X077224Y-061264
X077268Y-063000
X077606Y-061799
T2
X073760Y-064311
X074760Y-064311
X075760Y-064311
X076760Y-064311
X077760Y-060311
X077760Y-061311
X077760Y-062311
X077760Y-063311
X077760Y-064311
T0
M30
