G04 (created by PCBNEW (2013-may-18)-stable) date Wed 11 Feb 2015 08:06:24 PM EST*
%MOIN*%
G04 Gerber Fmt 3.4, Leading zero omitted, Abs format*
%FSLAX34Y34*%
G01*
G70*
G90*
G04 APERTURE LIST*
%ADD10C,0.00590551*%
%ADD11R,0.055X0.055*%
%ADD12C,0.055*%
%ADD13R,0.038X0.05*%
%ADD14C,0.027*%
%ADD15C,0.009*%
%ADD16C,0.012*%
%ADD17C,0.007*%
%ADD18C,0.01*%
%ADD19C,0.006*%
G04 APERTURE END LIST*
G54D10*
G54D11*
X77759Y-64311D03*
G54D12*
X77759Y-63311D03*
X77759Y-62311D03*
X77759Y-61311D03*
X77759Y-60311D03*
G54D11*
X76759Y-64311D03*
G54D12*
X75759Y-64311D03*
G54D11*
X73759Y-64311D03*
G54D12*
X74759Y-64311D03*
G54D13*
X77157Y-63586D03*
X76657Y-63586D03*
X76157Y-63586D03*
X75503Y-62893D03*
X75003Y-62893D03*
X74503Y-62893D03*
G54D14*
X76976Y-61523D03*
X74519Y-63401D03*
X74858Y-61500D03*
X75086Y-63944D03*
X77267Y-63000D03*
X77023Y-62110D03*
X73547Y-60929D03*
X74039Y-62854D03*
X74602Y-61913D03*
X76673Y-63039D03*
X75838Y-62358D03*
X73610Y-60377D03*
X74472Y-60574D03*
X76665Y-63834D03*
X75133Y-63496D03*
X75007Y-62866D03*
X74712Y-62401D03*
X75409Y-60220D03*
X74039Y-61015D03*
X77224Y-61263D03*
X77606Y-61799D03*
G54D15*
X76976Y-61523D02*
X76976Y-61527D01*
X76976Y-61527D02*
X77759Y-62311D01*
X74759Y-64311D02*
X74759Y-63641D01*
X74759Y-63641D02*
X74519Y-63401D01*
G54D16*
X76157Y-63586D02*
X75889Y-63586D01*
X75165Y-64311D02*
X74759Y-64311D01*
X75889Y-63586D02*
X75165Y-64311D01*
G54D17*
X76515Y-61629D02*
X77759Y-60385D01*
G54D15*
X74858Y-61500D02*
X74988Y-61629D01*
X74988Y-61629D02*
X76515Y-61629D01*
G54D17*
X77759Y-60385D02*
X77759Y-60311D01*
G54D15*
X77267Y-63000D02*
X77267Y-62354D01*
X77267Y-62354D02*
X77023Y-62110D01*
X74039Y-62854D02*
X74039Y-62476D01*
X74039Y-62476D02*
X74602Y-61913D01*
G54D18*
X76673Y-63039D02*
X76519Y-63039D01*
X76519Y-63039D02*
X75838Y-62358D01*
G54D16*
X74275Y-60377D02*
X73610Y-60377D01*
X74472Y-60574D02*
X74275Y-60377D01*
G54D15*
X76657Y-63826D02*
X76657Y-63586D01*
X76665Y-63834D02*
X76657Y-63826D01*
X75503Y-63125D02*
X75503Y-62893D01*
X75133Y-63496D02*
X75503Y-63125D01*
X75003Y-62870D02*
X75003Y-62893D01*
X75007Y-62866D02*
X75003Y-62870D01*
X74503Y-62811D02*
X74503Y-62893D01*
X74712Y-62602D02*
X74503Y-62811D01*
X74712Y-62401D02*
X74712Y-62602D01*
G54D16*
X77157Y-63586D02*
X77484Y-63586D01*
X77484Y-63586D02*
X77759Y-63311D01*
G54D18*
X75188Y-60220D02*
X75409Y-60220D01*
X74578Y-60830D02*
X75188Y-60220D01*
X74224Y-60830D02*
X74578Y-60830D01*
X74039Y-61015D02*
X74224Y-60830D01*
G54D16*
X77224Y-61263D02*
X77224Y-61421D01*
X77224Y-61421D02*
X77228Y-61421D01*
X77228Y-61421D02*
X77606Y-61799D01*
G54D10*
G36*
X78089Y-63125D02*
X78077Y-63098D01*
X77972Y-62993D01*
X77834Y-62936D01*
X77685Y-62935D01*
X77547Y-62992D01*
X77442Y-63098D01*
X77384Y-63236D01*
X77384Y-63243D01*
X77367Y-63236D01*
X77327Y-63236D01*
X76947Y-63236D01*
X76910Y-63251D01*
X76907Y-63255D01*
X76904Y-63251D01*
X76867Y-63236D01*
X76827Y-63236D01*
X76447Y-63236D01*
X76410Y-63251D01*
X76407Y-63255D01*
X76404Y-63251D01*
X76367Y-63236D01*
X76327Y-63236D01*
X75947Y-63236D01*
X75910Y-63251D01*
X75882Y-63279D01*
X75867Y-63316D01*
X75867Y-63356D01*
X75867Y-63431D01*
X75828Y-63438D01*
X75776Y-63473D01*
X75099Y-64150D01*
X75077Y-64098D01*
X74972Y-63993D01*
X74904Y-63965D01*
X74904Y-63641D01*
X74895Y-63595D01*
X74893Y-63586D01*
X74893Y-63586D01*
X74862Y-63539D01*
X74862Y-63539D01*
X74754Y-63431D01*
X74754Y-63355D01*
X74719Y-63268D01*
X74694Y-63243D01*
X74713Y-63243D01*
X74750Y-63228D01*
X74753Y-63225D01*
X74757Y-63228D01*
X74793Y-63243D01*
X74833Y-63243D01*
X75181Y-63243D01*
X75163Y-63261D01*
X75087Y-63261D01*
X75000Y-63296D01*
X74934Y-63362D01*
X74898Y-63449D01*
X74898Y-63542D01*
X74934Y-63629D01*
X75000Y-63695D01*
X75086Y-63731D01*
X75180Y-63731D01*
X75266Y-63695D01*
X75332Y-63629D01*
X75368Y-63543D01*
X75368Y-63466D01*
X75591Y-63243D01*
X75713Y-63243D01*
X75750Y-63228D01*
X75778Y-63200D01*
X75793Y-63163D01*
X75793Y-63123D01*
X75793Y-62623D01*
X75778Y-62587D01*
X75750Y-62558D01*
X75713Y-62543D01*
X75674Y-62543D01*
X75294Y-62543D01*
X75257Y-62558D01*
X75253Y-62562D01*
X75250Y-62558D01*
X75213Y-62543D01*
X75174Y-62543D01*
X74902Y-62543D01*
X74911Y-62534D01*
X74947Y-62448D01*
X74947Y-62355D01*
X74911Y-62268D01*
X74845Y-62202D01*
X74759Y-62166D01*
X74666Y-62166D01*
X74579Y-62202D01*
X74513Y-62268D01*
X74477Y-62354D01*
X74477Y-62448D01*
X74513Y-62534D01*
X74522Y-62543D01*
X74294Y-62543D01*
X74257Y-62558D01*
X74229Y-62586D01*
X74213Y-62623D01*
X74213Y-62663D01*
X74213Y-63163D01*
X74229Y-63200D01*
X74257Y-63228D01*
X74293Y-63243D01*
X74333Y-63243D01*
X74345Y-63243D01*
X74320Y-63268D01*
X74284Y-63354D01*
X74284Y-63448D01*
X74320Y-63534D01*
X74386Y-63600D01*
X74472Y-63636D01*
X74549Y-63636D01*
X74614Y-63701D01*
X74614Y-63965D01*
X74547Y-63992D01*
X74442Y-64098D01*
X74384Y-64236D01*
X74384Y-64385D01*
X74441Y-64523D01*
X74547Y-64628D01*
X74584Y-64644D01*
X74129Y-64644D01*
X74144Y-64608D01*
X74144Y-64564D01*
X74144Y-64057D01*
X74144Y-64014D01*
X74128Y-63973D01*
X74097Y-63942D01*
X74056Y-63926D01*
X73797Y-63926D01*
X73769Y-63953D01*
X73769Y-64301D01*
X74117Y-64301D01*
X74144Y-64273D01*
X74144Y-64057D01*
X74144Y-64564D01*
X74144Y-64348D01*
X74117Y-64321D01*
X73769Y-64321D01*
X73769Y-64328D01*
X73749Y-64328D01*
X73749Y-64321D01*
X73741Y-64321D01*
X73741Y-64301D01*
X73749Y-64301D01*
X73749Y-63953D01*
X73722Y-63926D01*
X73463Y-63926D01*
X73422Y-63942D01*
X73391Y-63973D01*
X73379Y-64002D01*
X73379Y-59970D01*
X77603Y-59970D01*
X77547Y-59992D01*
X77442Y-60098D01*
X77384Y-60236D01*
X77384Y-60385D01*
X77438Y-60515D01*
X76469Y-61484D01*
X75644Y-61484D01*
X75644Y-60173D01*
X75608Y-60087D01*
X75542Y-60021D01*
X75456Y-59985D01*
X75362Y-59985D01*
X75276Y-60021D01*
X75227Y-60070D01*
X75188Y-60070D01*
X75131Y-60081D01*
X75082Y-60114D01*
X74516Y-60680D01*
X74224Y-60680D01*
X74167Y-60692D01*
X74118Y-60724D01*
X74118Y-60724D01*
X74062Y-60780D01*
X73992Y-60780D01*
X73906Y-60816D01*
X73840Y-60882D01*
X73804Y-60968D01*
X73804Y-61062D01*
X73840Y-61148D01*
X73906Y-61214D01*
X73992Y-61250D01*
X74085Y-61250D01*
X74172Y-61215D01*
X74238Y-61149D01*
X74274Y-61062D01*
X74274Y-60992D01*
X74286Y-60980D01*
X74578Y-60980D01*
X74636Y-60969D01*
X74636Y-60969D01*
X74684Y-60936D01*
X75239Y-60382D01*
X75276Y-60419D01*
X75362Y-60455D01*
X75455Y-60455D01*
X75542Y-60419D01*
X75608Y-60353D01*
X75644Y-60267D01*
X75644Y-60173D01*
X75644Y-61484D01*
X75093Y-61484D01*
X75093Y-61453D01*
X75057Y-61367D01*
X74991Y-61300D01*
X74905Y-61265D01*
X74811Y-61264D01*
X74725Y-61300D01*
X74659Y-61366D01*
X74623Y-61453D01*
X74623Y-61546D01*
X74658Y-61632D01*
X74724Y-61699D01*
X74811Y-61734D01*
X74889Y-61735D01*
X74917Y-61753D01*
X74932Y-61763D01*
X74932Y-61763D01*
X74988Y-61774D01*
X76515Y-61774D01*
X76571Y-61763D01*
X76618Y-61732D01*
X76646Y-61689D01*
X76748Y-61587D01*
X76777Y-61656D01*
X76843Y-61722D01*
X76929Y-61758D01*
X77002Y-61758D01*
X77412Y-62169D01*
X77384Y-62236D01*
X77384Y-62385D01*
X77441Y-62523D01*
X77547Y-62628D01*
X77684Y-62685D01*
X77834Y-62686D01*
X77971Y-62629D01*
X78077Y-62523D01*
X78089Y-62496D01*
X78089Y-63125D01*
X78089Y-63125D01*
G37*
G54D19*
X78089Y-63125D02*
X78077Y-63098D01*
X77972Y-62993D01*
X77834Y-62936D01*
X77685Y-62935D01*
X77547Y-62992D01*
X77442Y-63098D01*
X77384Y-63236D01*
X77384Y-63243D01*
X77367Y-63236D01*
X77327Y-63236D01*
X76947Y-63236D01*
X76910Y-63251D01*
X76907Y-63255D01*
X76904Y-63251D01*
X76867Y-63236D01*
X76827Y-63236D01*
X76447Y-63236D01*
X76410Y-63251D01*
X76407Y-63255D01*
X76404Y-63251D01*
X76367Y-63236D01*
X76327Y-63236D01*
X75947Y-63236D01*
X75910Y-63251D01*
X75882Y-63279D01*
X75867Y-63316D01*
X75867Y-63356D01*
X75867Y-63431D01*
X75828Y-63438D01*
X75776Y-63473D01*
X75099Y-64150D01*
X75077Y-64098D01*
X74972Y-63993D01*
X74904Y-63965D01*
X74904Y-63641D01*
X74895Y-63595D01*
X74893Y-63586D01*
X74893Y-63586D01*
X74862Y-63539D01*
X74862Y-63539D01*
X74754Y-63431D01*
X74754Y-63355D01*
X74719Y-63268D01*
X74694Y-63243D01*
X74713Y-63243D01*
X74750Y-63228D01*
X74753Y-63225D01*
X74757Y-63228D01*
X74793Y-63243D01*
X74833Y-63243D01*
X75181Y-63243D01*
X75163Y-63261D01*
X75087Y-63261D01*
X75000Y-63296D01*
X74934Y-63362D01*
X74898Y-63449D01*
X74898Y-63542D01*
X74934Y-63629D01*
X75000Y-63695D01*
X75086Y-63731D01*
X75180Y-63731D01*
X75266Y-63695D01*
X75332Y-63629D01*
X75368Y-63543D01*
X75368Y-63466D01*
X75591Y-63243D01*
X75713Y-63243D01*
X75750Y-63228D01*
X75778Y-63200D01*
X75793Y-63163D01*
X75793Y-63123D01*
X75793Y-62623D01*
X75778Y-62587D01*
X75750Y-62558D01*
X75713Y-62543D01*
X75674Y-62543D01*
X75294Y-62543D01*
X75257Y-62558D01*
X75253Y-62562D01*
X75250Y-62558D01*
X75213Y-62543D01*
X75174Y-62543D01*
X74902Y-62543D01*
X74911Y-62534D01*
X74947Y-62448D01*
X74947Y-62355D01*
X74911Y-62268D01*
X74845Y-62202D01*
X74759Y-62166D01*
X74666Y-62166D01*
X74579Y-62202D01*
X74513Y-62268D01*
X74477Y-62354D01*
X74477Y-62448D01*
X74513Y-62534D01*
X74522Y-62543D01*
X74294Y-62543D01*
X74257Y-62558D01*
X74229Y-62586D01*
X74213Y-62623D01*
X74213Y-62663D01*
X74213Y-63163D01*
X74229Y-63200D01*
X74257Y-63228D01*
X74293Y-63243D01*
X74333Y-63243D01*
X74345Y-63243D01*
X74320Y-63268D01*
X74284Y-63354D01*
X74284Y-63448D01*
X74320Y-63534D01*
X74386Y-63600D01*
X74472Y-63636D01*
X74549Y-63636D01*
X74614Y-63701D01*
X74614Y-63965D01*
X74547Y-63992D01*
X74442Y-64098D01*
X74384Y-64236D01*
X74384Y-64385D01*
X74441Y-64523D01*
X74547Y-64628D01*
X74584Y-64644D01*
X74129Y-64644D01*
X74144Y-64608D01*
X74144Y-64564D01*
X74144Y-64057D01*
X74144Y-64014D01*
X74128Y-63973D01*
X74097Y-63942D01*
X74056Y-63926D01*
X73797Y-63926D01*
X73769Y-63953D01*
X73769Y-64301D01*
X74117Y-64301D01*
X74144Y-64273D01*
X74144Y-64057D01*
X74144Y-64564D01*
X74144Y-64348D01*
X74117Y-64321D01*
X73769Y-64321D01*
X73769Y-64328D01*
X73749Y-64328D01*
X73749Y-64321D01*
X73741Y-64321D01*
X73741Y-64301D01*
X73749Y-64301D01*
X73749Y-63953D01*
X73722Y-63926D01*
X73463Y-63926D01*
X73422Y-63942D01*
X73391Y-63973D01*
X73379Y-64002D01*
X73379Y-59970D01*
X77603Y-59970D01*
X77547Y-59992D01*
X77442Y-60098D01*
X77384Y-60236D01*
X77384Y-60385D01*
X77438Y-60515D01*
X76469Y-61484D01*
X75644Y-61484D01*
X75644Y-60173D01*
X75608Y-60087D01*
X75542Y-60021D01*
X75456Y-59985D01*
X75362Y-59985D01*
X75276Y-60021D01*
X75227Y-60070D01*
X75188Y-60070D01*
X75131Y-60081D01*
X75082Y-60114D01*
X74516Y-60680D01*
X74224Y-60680D01*
X74167Y-60692D01*
X74118Y-60724D01*
X74118Y-60724D01*
X74062Y-60780D01*
X73992Y-60780D01*
X73906Y-60816D01*
X73840Y-60882D01*
X73804Y-60968D01*
X73804Y-61062D01*
X73840Y-61148D01*
X73906Y-61214D01*
X73992Y-61250D01*
X74085Y-61250D01*
X74172Y-61215D01*
X74238Y-61149D01*
X74274Y-61062D01*
X74274Y-60992D01*
X74286Y-60980D01*
X74578Y-60980D01*
X74636Y-60969D01*
X74636Y-60969D01*
X74684Y-60936D01*
X75239Y-60382D01*
X75276Y-60419D01*
X75362Y-60455D01*
X75455Y-60455D01*
X75542Y-60419D01*
X75608Y-60353D01*
X75644Y-60267D01*
X75644Y-60173D01*
X75644Y-61484D01*
X75093Y-61484D01*
X75093Y-61453D01*
X75057Y-61367D01*
X74991Y-61300D01*
X74905Y-61265D01*
X74811Y-61264D01*
X74725Y-61300D01*
X74659Y-61366D01*
X74623Y-61453D01*
X74623Y-61546D01*
X74658Y-61632D01*
X74724Y-61699D01*
X74811Y-61734D01*
X74889Y-61735D01*
X74917Y-61753D01*
X74932Y-61763D01*
X74932Y-61763D01*
X74988Y-61774D01*
X76515Y-61774D01*
X76571Y-61763D01*
X76618Y-61732D01*
X76646Y-61689D01*
X76748Y-61587D01*
X76777Y-61656D01*
X76843Y-61722D01*
X76929Y-61758D01*
X77002Y-61758D01*
X77412Y-62169D01*
X77384Y-62236D01*
X77384Y-62385D01*
X77441Y-62523D01*
X77547Y-62628D01*
X77684Y-62685D01*
X77834Y-62686D01*
X77971Y-62629D01*
X78077Y-62523D01*
X78089Y-62496D01*
X78089Y-63125D01*
G54D10*
G36*
X78089Y-63939D02*
X78056Y-63926D01*
X78013Y-63926D01*
X77797Y-63926D01*
X77769Y-63953D01*
X77769Y-64301D01*
X77777Y-64301D01*
X77777Y-64321D01*
X77769Y-64321D01*
X77769Y-64328D01*
X77749Y-64328D01*
X77749Y-64321D01*
X77749Y-64301D01*
X77749Y-63953D01*
X77722Y-63926D01*
X77506Y-63926D01*
X77462Y-63926D01*
X77422Y-63942D01*
X77391Y-63973D01*
X77374Y-64014D01*
X77374Y-64273D01*
X77402Y-64301D01*
X77749Y-64301D01*
X77749Y-64321D01*
X77402Y-64321D01*
X77374Y-64348D01*
X77374Y-64607D01*
X77389Y-64644D01*
X77118Y-64644D01*
X77119Y-64642D01*
X77134Y-64606D01*
X77134Y-64566D01*
X77134Y-64016D01*
X77119Y-63979D01*
X77091Y-63951D01*
X77056Y-63936D01*
X77367Y-63936D01*
X77404Y-63921D01*
X77432Y-63893D01*
X77447Y-63856D01*
X77447Y-63816D01*
X77447Y-63746D01*
X77484Y-63746D01*
X77545Y-63734D01*
X77545Y-63734D01*
X77597Y-63699D01*
X77632Y-63664D01*
X77684Y-63685D01*
X77834Y-63686D01*
X77971Y-63629D01*
X78077Y-63523D01*
X78089Y-63496D01*
X78089Y-63939D01*
X78089Y-63939D01*
G37*
G54D19*
X78089Y-63939D02*
X78056Y-63926D01*
X78013Y-63926D01*
X77797Y-63926D01*
X77769Y-63953D01*
X77769Y-64301D01*
X77777Y-64301D01*
X77777Y-64321D01*
X77769Y-64321D01*
X77769Y-64328D01*
X77749Y-64328D01*
X77749Y-64321D01*
X77749Y-64301D01*
X77749Y-63953D01*
X77722Y-63926D01*
X77506Y-63926D01*
X77462Y-63926D01*
X77422Y-63942D01*
X77391Y-63973D01*
X77374Y-64014D01*
X77374Y-64273D01*
X77402Y-64301D01*
X77749Y-64301D01*
X77749Y-64321D01*
X77402Y-64321D01*
X77374Y-64348D01*
X77374Y-64607D01*
X77389Y-64644D01*
X77118Y-64644D01*
X77119Y-64642D01*
X77134Y-64606D01*
X77134Y-64566D01*
X77134Y-64016D01*
X77119Y-63979D01*
X77091Y-63951D01*
X77056Y-63936D01*
X77367Y-63936D01*
X77404Y-63921D01*
X77432Y-63893D01*
X77447Y-63856D01*
X77447Y-63816D01*
X77447Y-63746D01*
X77484Y-63746D01*
X77545Y-63734D01*
X77545Y-63734D01*
X77597Y-63699D01*
X77632Y-63664D01*
X77684Y-63685D01*
X77834Y-63686D01*
X77971Y-63629D01*
X78077Y-63523D01*
X78089Y-63496D01*
X78089Y-63939D01*
M02*
